<svg xmlns="http://www.w3.org/2000/svg" viewBox="0 0 400 300" fill="none">
  <defs>
    <linearGradient id="bg8" x1="0%" y1="0%" x2="100%" y2="100%">
      <stop offset="0%" style="stop-color:#FFF8E7;stop-opacity:1" />
      <stop offset="100%" style="stop-color:#F0E4D0;stop-opacity:1" />
    </linearGradient>
    <radialGradient id="glow8" cx="50%" cy="38%" r="35%">
      <stop offset="0%" style="stop-color:#FFD700;stop-opacity:0.2" />
      <stop offset="100%" style="stop-color:#FFD700;stop-opacity:0" />
    </radialGradient>
  </defs>
  <rect width="400" height="300" fill="url(#bg8)" rx="12"/>
  <circle cx="200" cy="115" r="70" fill="url(#glow8)"/>
  <!-- Scales of justice -->
  <line x1="200" y1="60" x2="200" y2="170" stroke="#B8860B" stroke-width="2.5" opacity="0.5"/>
  <line x1="155" y1="90" x2="245" y2="90" stroke="#B8860B" stroke-width="2" opacity="0.45"/>
  <!-- Left pan -->
  <path d="M145 90 L135 130 L175 130 L165 90" stroke="#B8860B" stroke-width="1.5" fill="#B8860B" fill-opacity="0.1"/>
  <line x1="155" y1="90" x2="135" y2="130" stroke="#B8860B" stroke-width="1" opacity="0.35"/>
  <line x1="155" y1="90" x2="175" y2="130" stroke="#B8860B" stroke-width="1" opacity="0.35"/>
  <!-- Right pan -->
  <path d="M235 90 L225 125 L265 125 L255 90" stroke="#B8860B" stroke-width="1.5" fill="#B8860B" fill-opacity="0.1"/>
  <line x1="245" y1="90" x2="225" y2="125" stroke="#B8860B" stroke-width="1" opacity="0.35"/>
  <line x1="245" y1="90" x2="265" y2="125" stroke="#B8860B" stroke-width="1" opacity="0.35"/>
  <!-- Top ornament -->
  <circle cx="200" cy="60" r="5" fill="#B8860B" opacity="0.4"/>
  <!-- Base -->
  <rect x="185" y="170" width="30" height="6" rx="3" fill="#B8860B" opacity="0.35"/>
  <rect x="178" y="176" width="44" height="4" rx="2" fill="#B8860B" opacity="0.25"/>
  <!-- Peace dove -->
  <g transform="translate(310, 80)" opacity="0.2">
    <path d="M0 0 Q-5 -8 -12 -5 Q-8 -2 -5 0 Q-2 -6 5 -8 Q8 -4 5 0 Q10 -3 15 -5 Q12 0 5 2 Q0 3 -5 2 Q-8 4 -12 5 Q-5 3 0 0Z" fill="#B8860B"/>
  </g>
  <!-- Prayer hands -->
  <g transform="translate(85, 100)" opacity="0.2">
    <path d="M0 20 L5 0 L10 20" stroke="#B8860B" stroke-width="1.5" fill="none"/>
    <path d="M2 18 L5 3 L8 18" stroke="#D4A843" stroke-width="1" fill="none"/>
  </g>
  <!-- Court building pillars hint -->
  <g opacity="0.08">
    <rect x="100" y="210" width="8" height="40" fill="#B8860B"/>
    <rect x="140" y="210" width="8" height="40" fill="#B8860B"/>
    <rect x="252" y="210" width="8" height="40" fill="#B8860B"/>
    <rect x="292" y="210" width="8" height="40" fill="#B8860B"/>
    <rect x="95" y="205" width="210" height="6" fill="#B8860B"/>
  </g>
  <!-- Decorative -->
  <circle cx="120" cy="260" r="1.5" fill="#D4A843" opacity="0.2"/>
  <circle cx="280" cy="260" r="1.5" fill="#D4A843" opacity="0.2"/>
</svg>